<svg xmlns="http://www.w3.org/2000/svg" fill="none" viewBox="0 0 24 24"><path fill="#e3e3e3" d="M22 17.645V7.5C22 6.70435 21.6839 5.94129 21.1213 5.37868C20.5587 4.81607 19.7956 4.5 19 4.5H5C4.20435 4.5 3.44129 4.81607 2.87868 5.37868C2.31607 5.94129 2 6.70435 2 7.5V17.645"></path><path stroke="#191919" stroke-linecap="round" stroke-linejoin="round" d="M22 17.645V7.5C22 6.70435 21.6839 5.94129 21.1213 5.37868C20.5587 4.81607 19.7956 4.5 19 4.5H5C4.20435 4.5 3.44129 4.81607 2.87868 5.37868C2.31607 5.94129 2 6.70435 2 7.5V17.645"></path><path fill="#e3e3e3" d="M23 23.5V19.394C23.002 19.0891 22.9335 18.7879 22.7999 18.5139C22.6664 18.2398 22.4713 18.0003 22.23 17.814C20.5325 16.5959 18.5809 15.7784 16.522 15.423H7.478C5.41909 15.7784 3.46753 16.5959 1.76999 17.814C1.52867 18.0003 1.33363 18.2398 1.20007 18.5139C1.06651 18.7879 0.998038 19.0891 0.999995 19.394V23.5"></path><path fill="#ffffff" d="M22.23 17.814C20.5324 16.5959 18.5809 15.7781 16.522 15.422H7.47801C5.41912 15.7781 3.46764 16.5959 1.77001 17.814C1.52876 18.0001 1.33376 18.2395 1.2002 18.5134C1.06664 18.7873 0.998128 19.0883 1.00001 19.393V23.111C0.998128 22.8063 1.06664 22.5053 1.2002 22.2314C1.33376 21.9575 1.52876 21.7181 1.77001 21.532C3.46764 20.3139 5.41912 19.4961 7.47801 19.14H16.522C18.5809 19.4961 20.5324 20.3139 22.23 21.532C22.4713 21.7181 22.6663 21.9575 22.7998 22.2314C22.9334 22.5053 23.0019 22.8063 23 23.111V19.393C23.0019 19.0883 22.9334 18.7873 22.7998 18.5134C22.6663 18.2395 22.4713 18.0001 22.23 17.814V17.814Z"></path><path stroke="#191919" stroke-linecap="round" stroke-linejoin="round" d="M23 23.5V19.394C23.002 19.0891 22.9335 18.7879 22.7999 18.5139C22.6664 18.2398 22.4713 18.0003 22.23 17.814C20.5325 16.5959 18.5809 15.7784 16.522 15.423H7.478C5.41909 15.7784 3.46753 16.5959 1.76999 17.814C1.52867 18.0003 1.33363 18.2398 1.20007 18.5139C1.06651 18.7879 0.998038 19.0891 0.999995 19.394V23.5"></path><path fill="#ffffff" stroke="#191919" stroke-linecap="round" stroke-linejoin="round" d="M4 9.5C4 13.918 7.582 16.5 12 16.5C16.418 16.5 20 13.918 20 9.5V8.5C20 6.37827 19.1571 4.34344 17.6569 2.84315C16.1566 1.34285 14.1217 0.5 12 0.5C9.87827 0.5 7.84344 1.34285 6.34315 2.84315C4.84285 4.34344 4 6.37827 4 8.5V9.5Z"></path><path fill="#66e1ff" d="M18 8.5C18 11.814 15.314 12.5 12 12.5C8.686 12.5 6 11.814 6 8.5C6 6.9087 6.63214 5.38258 7.75736 4.25736C8.88258 3.13214 10.4087 2.5 12 2.5C13.5913 2.5 15.1174 3.13214 16.2426 4.25736C17.3679 5.38258 18 6.9087 18 8.5V8.5Z"></path><path fill="#ff808c" d="M16 19.5V21.5H13V18.5H15C15.2652 18.5 15.5196 18.6054 15.7071 18.7929C15.8946 18.9804 16 19.2348 16 19.5Z"></path><path fill="#78eb7b" d="M13 18.5V21.5H8V19.5C8 19.2348 8.10536 18.9804 8.29289 18.7929C8.48043 18.6054 8.73478 18.5 9 18.5H13Z"></path><path fill="#808080" d="M16 21.497H8V23.497H16V21.497Z"></path><path stroke="#191919" stroke-linecap="round" stroke-linejoin="round" d="M16 23.5V19.5C16 19.2348 15.8946 18.9804 15.7071 18.7929C15.5196 18.6054 15.2652 18.5 15 18.5H9C8.73478 18.5 8.48043 18.6054 8.29289 18.7929C8.10536 18.9804 8 19.2348 8 19.5V23.5"></path><path stroke="#191919" stroke-linecap="round" stroke-linejoin="round" d="M13 18.5V21.5"></path><path stroke="#191919" stroke-linecap="round" stroke-linejoin="round" d="M18 20.5H20"></path><path stroke="#191919" stroke-linecap="round" stroke-linejoin="round" d="M4 22.5H6"></path><path stroke="#191919" stroke-linecap="round" stroke-linejoin="round" d="M5 20.5H6"></path><path stroke="#191919" stroke-linecap="round" stroke-linejoin="round" d="M8 21.5H16"></path><path fill="#c2f3ff" d="M12 2.5C10.4087 2.5 8.88257 3.13214 7.75735 4.25736C6.63214 5.38258 6 6.9087 6 8.5C5.936 9.22773 6.1115 9.95644 6.49979 10.5752C6.88807 11.194 7.46789 11.6691 8.151 11.928L16.022 4.057C14.9222 3.05495 13.4878 2.49969 12 2.5V2.5Z"></path><path stroke="#191919" stroke-linecap="round" stroke-linejoin="round" d="M18 8.5C18 11.814 15.314 12.5 12 12.5C8.686 12.5 6 11.814 6 8.5C6 6.9087 6.63214 5.38258 7.75736 4.25736C8.88258 3.13214 10.4087 2.5 12 2.5C13.5913 2.5 15.1174 3.13214 16.2426 4.25736C17.3679 5.38258 18 6.9087 18 8.5V8.5Z"></path></svg>
