<svg xmlns="http://www.w3.org/2000/svg" fill="none" viewBox="0 0 24 24">
  <path fill="#66e1ff" d="M19 2H5C3.89543 2 3 2.89543 3 4V20C3 21.1046 3.89543 22 5 22H19C20.1046 22 21 21.1046 21 20V4C21 2.89543 20.1046 2 19 2Z"/>
  <path fill="#c2f3ff" d="M7 16L17 6V4C17 3.44772 16.5523 3 16 3H5C4.44772 3 4 3.44772 4 4V15C4 15.5523 4.44772 16 5 16H7Z"/>
  <path stroke="#191919" stroke-linecap="round" stroke-linejoin="round" d="M19 2H5C3.89543 2 3 2.89543 3 4V20C3 21.1046 3.89543 22 5 22H19C20.1046 22 21 21.1046 21 20V4C21 2.89543 20.1046 2 19 2Z"/>
  <path fill="#ffef5e" d="M12 16C14.2091 16 16 14.2091 16 12C16 9.79086 14.2091 8 12 8C9.79086 8 8 9.79086 8 12C8 14.2091 9.79086 16 12 16Z"/>
  <path fill="#fff9bf" d="M12 8C11.2044 8 10.4413 8.31607 9.87868 8.87868C9.31607 9.44129 9 10.2044 9 11C9.5 10 10.5 9 12 9C11.73 8.61 11.42 8.27 11.05 8C11.36 8 11.68 8 12 8Z"/>
  <path stroke="#191919" stroke-linecap="round" stroke-linejoin="round" d="M12 16C14.2091 16 16 14.2091 16 12C16 9.79086 14.2091 8 12 8C9.79086 8 8 9.79086 8 12C8 14.2091 9.79086 16 12 16Z"/>
  <path stroke="#191919" stroke-linecap="round" stroke-linejoin="round" d="M12 10V14"/>
  <path stroke="#191919" stroke-linecap="round" stroke-linejoin="round" d="M10 12H14"/>
  <path fill="#ff808c" d="M6 5H8V7H6V5Z"/>
  <path stroke="#191919" stroke-linecap="round" stroke-linejoin="round" d="M6 5H8V7H6V5Z"/>
  <path stroke="#191919" stroke-linecap="round" stroke-linejoin="round" d="M7 18H17"/>
  <path stroke="#191919" stroke-linecap="round" stroke-linejoin="round" d="M7 20H13"/>
</svg>
