<svg xmlns="http://www.w3.org/2000/svg" fill="none" viewBox="0 0 24 24"><path fill="#ffffff" d="M20.246 4.5H4.246C3.71557 4.5 3.20686 4.28929 2.83179 3.91421C2.45672 3.53914 2.246 3.03043 2.246 2.5C2.246 1.96957 2.45672 1.46086 2.83179 1.08579C3.20686 0.710714 3.71557 0.5 4.246 0.5H20.246V4.5Z"></path><path fill="#66e1ff" d="M21.246 5.5V22.5C21.246 22.7652 21.1406 23.0196 20.9531 23.2071C20.7656 23.3946 20.5112 23.5 20.246 23.5H4.246C3.71557 23.5 3.20686 23.2893 2.83179 22.9142C2.45672 22.5391 2.246 22.0304 2.246 21.5V2.5C2.246 3.03043 2.45672 3.53914 2.83179 3.91421C3.20686 4.28929 3.71557 4.5 4.246 4.5H20.246C20.5112 4.5 20.7656 4.60536 20.9531 4.79289C21.1406 4.98043 21.246 5.23478 21.246 5.5Z"></path><path fill="#c2f3ff" d="M5.667 21.5V4.5H4.246C3.71557 4.5 3.20686 4.28929 2.83179 3.91421C2.45672 3.53914 2.246 3.03043 2.246 2.5V21.5C2.246 22.0304 2.45672 22.5391 2.83179 22.9142C3.20686 23.2893 3.71557 23.5 4.246 23.5H7.667C7.13657 23.5 6.62786 23.2893 6.25279 22.9142C5.87772 22.5391 5.667 22.0304 5.667 21.5Z"></path><path stroke="#191919" stroke-linecap="round" stroke-linejoin="round" d="M21.246 5.5V22.5C21.246 22.7652 21.1406 23.0196 20.9531 23.2071C20.7656 23.3946 20.5112 23.5 20.246 23.5H4.246C3.71557 23.5 3.20686 23.2893 2.83179 22.9142C2.45672 22.5391 2.246 22.0304 2.246 21.5V2.5C2.246 3.03043 2.45672 3.53914 2.83179 3.91421C3.20686 4.28929 3.71557 4.5 4.246 4.5H20.246C20.5112 4.5 20.7656 4.60536 20.9531 4.79289C21.1406 4.98043 21.246 5.23478 21.246 5.5Z"></path><path stroke="#191919" stroke-linecap="round" stroke-linejoin="round" d="M2.246 2.5C2.24758 1.97005 2.45881 1.46227 2.83354 1.08753C3.20827 0.712805 3.71606 0.501583 4.246 0.5H21.246"></path><path stroke="#191919" stroke-linecap="round" stroke-linejoin="round" d="M4.246 2.5H20.246"></path><path fill="#ffffff" d="M17.246 18.721C17.246 18.721 15.226 17.828 13.814 17.306C12.888 16.962 13.02 15.399 13.556 14.812C14.0199 14.3575 14.3743 13.8033 14.5924 13.1916C14.8106 12.5799 14.8867 11.9265 14.815 11.281C14.8549 10.8582 14.8047 10.4317 14.6675 10.0298C14.5303 9.62788 14.3093 9.25967 14.0192 8.94951C13.7291 8.63936 13.3764 8.39434 12.9846 8.23065C12.5927 8.06697 12.1705 7.98835 11.746 8C11.3217 7.98838 10.8997 8.06695 10.508 8.23052C10.1162 8.39409 9.76368 8.63892 9.4736 8.94885C9.18352 9.25878 8.96251 9.62675 8.82519 10.0284C8.68787 10.4301 8.63736 10.8564 8.677 11.279C8.60534 11.9245 8.68144 12.5779 8.89957 13.1896C9.11769 13.8013 9.47211 14.3555 9.936 14.81C10.472 15.397 10.604 16.96 9.678 17.304C8.263 17.827 6.246 18.719 6.246 18.719"></path><path stroke="#191919" stroke-linecap="round" stroke-linejoin="round" d="M17.246 18.721C17.246 18.721 15.226 17.828 13.814 17.306C12.888 16.962 13.02 15.399 13.556 14.812C14.0199 14.3575 14.3743 13.8033 14.5924 13.1916C14.8106 12.5799 14.8867 11.9265 14.815 11.281C14.8549 10.8582 14.8047 10.4317 14.6675 10.0298C14.5303 9.62788 14.3093 9.25967 14.0192 8.94951C13.7291 8.63936 13.3764 8.39434 12.9846 8.23065C12.5927 8.06697 12.1705 7.98835 11.746 8C11.3217 7.98838 10.8997 8.06695 10.508 8.23052C10.1162 8.39409 9.76368 8.63892 9.4736 8.94885C9.18352 9.25878 8.96251 9.62675 8.82519 10.0284C8.68787 10.4301 8.63736 10.8564 8.677 11.279C8.60534 11.9245 8.68144 12.5779 8.89957 13.1896C9.11769 13.8013 9.47211 14.3555 9.936 14.81C10.472 15.397 10.604 16.96 9.678 17.304C8.263 17.827 6.246 18.719 6.246 18.719"></path></svg>
