<svg xmlns="http://www.w3.org/2000/svg" fill="none" viewBox="0 0 24 24"><path fill="#66e1ff" d="M6.5 9.5H1.5V22.5H6.5V9.5Z"></path><path fill="#66e1ff" d="M15.5 13.5C14.9696 13.5 14.4609 13.7107 14.0858 14.0858C13.7107 14.4609 13.5 14.9696 13.5 15.5V22.5H8.5V9.49999H13.5V10.985C14.6163 10.0389 16.0268 9.51037 17.49 9.48999C20.452 9.48999 22.5 11.69 22.5 15.845V22.5H17.5V15.5C17.5 14.9696 17.2893 14.4609 16.9142 14.0858C16.5391 13.7107 16.0304 13.5 15.5 13.5V13.5Z"></path><path fill="#66e1ff" d="M4 7.5C5.38071 7.5 6.5 6.38071 6.5 5C6.5 3.61929 5.38071 2.5 4 2.5C2.61929 2.5 1.5 3.61929 1.5 5C1.5 6.38071 2.61929 7.5 4 7.5Z"></path><path fill="#c2f3ff" d="M6.5 9.5H1.5V11.515H6.5V9.5Z"></path><path fill="#c2f3ff" d="M17.49 9.48999C16.027 9.51026 14.6165 10.0384 13.5 10.984V9.49999H8.5V11.515H12.015C12.4088 11.515 12.7866 11.6714 13.0651 11.9499C13.3435 12.2284 13.5 12.6061 13.5 13V13C14.6163 12.0539 16.0268 11.5254 17.49 11.505C20.452 11.505 22.5 13.7 22.5 17.86V15.845C22.5 11.685 20.452 9.48999 17.49 9.48999Z"></path><path fill="#c2f3ff" d="M4 4.51496C4.48448 4.5155 4.95837 4.6568 5.36404 4.92168C5.7697 5.18656 6.08966 5.5636 6.285 6.00696C6.45395 5.62635 6.52515 5.20955 6.49213 4.79444C6.45911 4.37932 6.32291 3.97902 6.09591 3.62991C5.86892 3.28079 5.5583 2.9939 5.19228 2.7953C4.82626 2.5967 4.41643 2.49268 4 2.49268C3.58357 2.49268 3.17374 2.5967 2.80772 2.7953C2.4417 2.9939 2.13109 3.28079 1.90409 3.62991C1.67709 3.97902 1.54089 4.37932 1.50787 4.79444C1.47485 5.20955 1.54605 5.62635 1.715 6.00696C1.91034 5.5636 2.2303 5.18656 2.63597 4.92168C3.04163 4.6568 3.51552 4.5155 4 4.51496V4.51496Z"></path><path stroke="#191919" stroke-linecap="round" stroke-linejoin="round" d="M6.5 22.5H1.5V9.5H6.5V22.5ZM15.5 13.5C14.9696 13.5 14.4609 13.7107 14.0858 14.0858C13.7107 14.4609 13.5 14.9696 13.5 15.5V22.5H8.5V9.5H13.5V10.985C14.6163 10.0389 16.0268 9.51038 17.49 9.49C20.452 9.49 22.5 11.69 22.5 15.845V22.5H17.5V15.5C17.5 14.9696 17.2893 14.4609 16.9142 14.0858C16.5391 13.7107 16.0304 13.5 15.5 13.5V13.5ZM6.5 5C6.5 5.49445 6.35338 5.9778 6.07867 6.38893C5.80397 6.80005 5.41352 7.12048 4.95671 7.3097C4.49989 7.49892 3.99723 7.54843 3.51228 7.45196C3.02732 7.3555 2.58187 7.1174 2.23223 6.76777C1.8826 6.41814 1.6445 5.97268 1.54804 5.48773C1.45157 5.00277 1.50108 4.50011 1.6903 4.04329C1.87952 3.58648 2.19995 3.19603 2.61108 2.92133C3.0222 2.64662 3.50555 2.5 4 2.5C4.66304 2.5 5.29893 2.76339 5.76777 3.23223C6.23661 3.70107 6.5 4.33696 6.5 5Z"></path></svg>
