<svg xmlns="http://www.w3.org/2000/svg" fill="none" viewBox="0 0 24 24"><path fill="#ffdda1" d="M18 0.5C17.4696 0.5 16.9609 0.710714 16.5858 1.08579C16.2107 1.46086 16 1.96957 16 2.5V9.5C16 8.96957 15.7893 8.46086 15.4142 8.08579C15.0391 7.71071 14.5304 7.5 14 7.5C13.4696 7.5 12.9609 7.71071 12.5858 8.08579C12.2107 8.46086 12 8.96957 12 9.5C12 8.96957 11.7893 8.46086 11.4142 8.08579C11.0391 7.71071 10.5304 7.5 10 7.5C9.46957 7.5 8.96086 7.71071 8.58579 8.08579C8.21071 8.46086 8 8.96957 8 9.5V4.5C8 3.96957 7.78929 3.46086 7.41421 3.08579C7.03914 2.71071 6.53043 2.5 6 2.5C5.46957 2.5 4.96086 2.71071 4.58579 3.08579C4.21071 3.46086 4 3.96957 4 4.5V15.5C4 17.6217 4.84285 19.6566 6.34315 21.1569C7.84344 22.6571 9.87827 23.5 12 23.5C16.845 23.5 20 19.311 20 16.178V2.5C20 1.96957 19.7893 1.46086 19.4142 1.08579C19.0391 0.710714 18.5304 0.5 18 0.5V0.5Z"></path><path stroke="#191919" stroke-linecap="round" stroke-linejoin="round" d="M10.546 14.927C10.2482 15.0115 9.93495 15.0257 9.63076 14.9686C9.32657 14.9114 9.03979 14.7845 8.793 14.5977C8.5462 14.4109 8.34613 14.1694 8.20853 13.8921C8.07092 13.6149 7.99954 13.3095 8 13V9.5C8 8.96957 8.21072 8.46086 8.58579 8.08579C8.96086 7.71071 9.46957 7.5 10 7.5C10.5304 7.5 11.0391 7.71071 11.4142 8.08579C11.7893 8.46086 12 8.96957 12 9.5V12.563"></path><path stroke="#191919" stroke-linecap="round" stroke-linejoin="round" d="M12 12.5V9.5C12 8.96957 12.2107 8.46086 12.5858 8.08579C12.9609 7.71071 13.4696 7.5 14 7.5C14.5304 7.5 15.0391 7.71071 15.4142 8.08579C15.7893 8.46086 16 8.96957 16 9.5V12.5"></path><path stroke="#191919" stroke-linecap="round" stroke-linejoin="round" d="M20 16.178V2.5C20 1.96957 19.7893 1.46086 19.4142 1.08579C19.0391 0.710714 18.5304 0.5 18 0.5C17.4696 0.5 16.9609 0.710714 16.5858 1.08579C16.2107 1.46086 16 1.96957 16 2.5V9.5"></path><path stroke="#191919" stroke-linecap="round" stroke-linejoin="round" d="M12 20.5C12 19.4391 12.4214 18.4217 13.1716 17.6716C13.9217 16.9214 14.9391 16.5 16 16.5H12.5C11.9696 16.5 11.4609 16.2893 11.0858 15.9142C10.7107 15.5391 10.5 15.0304 10.5 14.5C10.5 13.9696 10.7107 13.4609 11.0858 13.0858C11.4609 12.7107 11.9696 12.5 12.5 12.5H16.028C16.88 12.5004 17.7103 12.7691 18.401 13.268C18.8771 13.5936 19.2699 14.0267 19.5477 14.5322C19.8254 15.0378 19.9804 15.6015 20 16.178C20 19.311 16.845 23.5 12 23.5C9.87827 23.5 7.84344 22.6571 6.34315 21.1569C4.84285 19.6566 4 17.6217 4 15.5V4.5C4 3.96957 4.21071 3.46086 4.58579 3.08579C4.96086 2.71071 5.46957 2.5 6 2.5C6.53043 2.5 7.03914 2.71071 7.41421 3.08579C7.78929 3.46086 8 3.96957 8 4.5V9.5"></path></svg>
