<svg xmlns="http://www.w3.org/2000/svg" fill="none" viewBox="0 0 24 24"><path fill="#ffdda1" stroke="#191919" stroke-linecap="round" stroke-linejoin="round" d="M5 5.5C5.49445 5.5 5.9778 5.35338 6.38893 5.07867C6.80005 4.80397 7.12048 4.41353 7.3097 3.95671C7.49892 3.49989 7.54843 2.99723 7.45196 2.51228C7.3555 2.02732 7.1174 1.58187 6.76777 1.23223C6.41814 0.882603 5.97268 0.644501 5.48773 0.548038C5.00277 0.451575 4.50011 0.501083 4.04329 0.690302C3.58648 0.879521 3.19603 1.19995 2.92133 1.61108C2.64662 2.0222 2.5 2.50555 2.5 3C2.5 3.66304 2.76339 4.29893 3.23223 4.76777C3.70107 5.23661 4.33696 5.5 5 5.5Z"></path><path stroke="#191919" stroke-linecap="round" stroke-linejoin="round" d="M12 13.5H23"></path><path stroke="#191919" stroke-linecap="round" stroke-linejoin="round" d="M23.5 6L21.739 10.841C21.669 11.0339 21.5414 11.2006 21.3734 11.3185C21.2054 11.4364 21.0052 11.4998 20.8 11.5H16"></path><path stroke="#191919" stroke-linecap="round" stroke-linejoin="round" d="M16.5 13.5V23.5"></path><path stroke="#191919" stroke-linecap="round" stroke-linejoin="round" d="M2 18L0.5 23.5"></path><path stroke="#191919" stroke-linecap="round" stroke-linejoin="round" d="M0.5 8.5L2 18H5"></path><path fill="#66e1ff" stroke="#191919" stroke-linecap="round" stroke-linejoin="round" d="M12.38 23.5C12.0861 23.5002 11.7987 23.414 11.5533 23.2523C11.308 23.0905 11.1156 22.8602 11 22.59L9.4 18.909C9.28439 18.6393 9.09223 18.4095 8.84729 18.2479C8.60236 18.0863 8.31542 18.0001 8.022 18H5C4.60218 18 4.22064 17.842 3.93934 17.5607C3.65804 17.2794 3.5 16.8978 3.5 16.5V8.50001C3.50001 8.19351 3.59391 7.89437 3.76907 7.64285C3.94422 7.39134 4.19222 7.19951 4.47969 7.09319C4.76716 6.98688 5.08029 6.97117 5.37695 7.0482C5.67361 7.12522 5.93956 7.29128 6.139 7.52401L7.939 9.62401C8.1739 9.89806 8.46536 10.118 8.79335 10.2687C9.12133 10.4194 9.47805 10.4973 9.839 10.497H12.5C12.8978 10.497 13.2794 10.655 13.5607 10.9363C13.842 11.2177 14 11.5992 14 11.997C14 12.3948 13.842 12.7764 13.5607 13.0577C13.2794 13.339 12.8978 13.497 12.5 13.497H9.84C8.63299 13.4991 7.45901 13.1029 6.5 12.37V15H8.022C8.90294 15.0003 9.76444 15.2591 10.4997 15.7444C11.2349 16.2297 11.8115 16.9201 12.158 17.73L13.758 21.411C13.8554 21.639 13.8947 21.8876 13.8724 22.1345C13.8502 22.3814 13.7671 22.619 13.6306 22.826C13.4941 23.0329 13.3084 23.2028 13.0902 23.3204C12.8719 23.4381 12.6279 23.4998 12.38 23.5Z"></path><path stroke="#191919" stroke-linecap="round" stroke-linejoin="round" d="M21 1.91501C19.868 0.999264 18.456 0.499664 17 0.499664C15.544 0.499664 14.132 0.999264 13 1.91501"></path><path stroke="#191919" stroke-linecap="round" stroke-linejoin="round" d="M14.667 4.33001C15.3274 3.79616 16.1508 3.50494 17 3.50494C17.8492 3.50494 18.6726 3.79616 19.333 4.33001"></path><path stroke="#191919" d="M17 7.00006C16.8619 7.00006 16.75 6.88813 16.75 6.75006C16.75 6.61199 16.8619 6.50006 17 6.50006"></path><path stroke="#191919" d="M17 7.00006C17.1381 7.00006 17.25 6.88813 17.25 6.75006C17.25 6.61199 17.1381 6.50006 17 6.50006"></path></svg>
