<svg xmlns="http://www.w3.org/2000/svg" fill="none" viewBox="0 0 24 24"><path fill="#66e1ff" d="M23.5 7V20C23.5 20.5304 23.2893 21.0391 22.9142 21.4142C22.5391 21.7893 22.0304 22 21.5 22H2.5C1.96957 22 1.46086 21.7893 1.08579 21.4142C0.710714 21.0391 0.5 20.5304 0.5 20V7H23.5Z"></path><path fill="#c2f3ff" d="M5 22L20 7H0.5V20C0.5 20.5304 0.710714 21.0391 1.08579 21.4142C1.46086 21.7893 1.96957 22 2.5 22H5Z"></path><path fill="#ffffff" d="M23.5 7H0.5V4C0.5 3.46957 0.710714 2.96086 1.08579 2.58579C1.46086 2.21071 1.96957 2 2.5 2H21.5C22.0304 2 22.5391 2.21071 22.9142 2.58579C23.2893 2.96086 23.5 3.46957 23.5 4V7Z"></path><path stroke="#191919" stroke-linecap="round" stroke-linejoin="round" d="M21.5 2H2.5C1.39543 2 0.5 2.89543 0.5 4V20C0.5 21.1046 1.39543 22 2.5 22H21.5C22.6046 22 23.5 21.1046 23.5 20V4C23.5 2.89543 22.6046 2 21.5 2Z"></path><path stroke="#191919" stroke-linecap="round" stroke-linejoin="round" d="M0.5 7H23.5"></path><path stroke="#191919" d="M4 4.75C3.86193 4.75 3.75 4.63807 3.75 4.5C3.75 4.36193 3.86193 4.25 4 4.25"></path><path stroke="#191919" d="M4 4.75C4.13807 4.75 4.25 4.63807 4.25 4.5C4.25 4.36193 4.13807 4.25 4 4.25"></path><path fill="#fff9bf" d="M10 11H4C3.72386 11 3.5 11.2239 3.5 11.5V17.5C3.5 17.7761 3.72386 18 4 18H10C10.2761 18 10.5 17.7761 10.5 17.5V11.5C10.5 11.2239 10.2761 11 10 11Z"></path><path fill="#ffbfc5" d="M3.631 17.838L7.081 13.587C7.13165 13.5246 7.1966 13.4754 7.27033 13.4434C7.34407 13.4114 7.42443 13.3977 7.50459 13.4034C7.58475 13.4091 7.66237 13.434 7.73085 13.4761C7.79933 13.5182 7.85667 13.5761 7.898 13.645L10.389 17.814"></path><path stroke="#191919" stroke-linecap="round" stroke-linejoin="round" d="M3.631 17.838L7.081 13.587C7.13165 13.5246 7.1966 13.4754 7.27033 13.4434C7.34407 13.4114 7.42443 13.3977 7.50459 13.4034C7.58475 13.4091 7.66237 13.434 7.73085 13.4761C7.79933 13.5182 7.85667 13.5761 7.898 13.645L10.389 17.814"></path><path fill="#ffef5e" d="M20 11H14C13.7239 11 13.5 11.2239 13.5 11.5V17.5C13.5 17.7761 13.7239 18 14 18H20C20.2761 18 20.5 17.7761 20.5 17.5V11.5C20.5 11.2239 20.2761 11 20 11Z"></path><path fill="#ff808c" d="M13.631 17.838L17.081 13.587C17.1316 13.5246 17.1966 13.4754 17.2703 13.4434C17.3441 13.4114 17.4244 13.3977 17.5046 13.4034C17.5848 13.4091 17.6624 13.434 17.7308 13.4761C17.7993 13.5182 17.8567 13.5761 17.898 13.645L20.389 17.814"></path><path stroke="#191919" stroke-linecap="round" stroke-linejoin="round" d="M13.631 17.838L17.081 13.587C17.1316 13.5246 17.1966 13.4754 17.2703 13.4434C17.3441 13.4114 17.4244 13.3977 17.5046 13.4034C17.5848 13.4091 17.6624 13.434 17.7308 13.4761C17.7993 13.5182 17.8567 13.5761 17.898 13.645L20.389 17.814"></path><path stroke="#191919" stroke-linecap="round" stroke-linejoin="round" d="M20 11H14C13.7239 11 13.5 11.2239 13.5 11.5V17.5C13.5 17.7761 13.7239 18 14 18H20C20.2761 18 20.5 17.7761 20.5 17.5V11.5C20.5 11.2239 20.2761 11 20 11Z"></path><path stroke="#191919" stroke-linecap="round" stroke-linejoin="round" d="M10 11H4C3.72386 11 3.5 11.2239 3.5 11.5V17.5C3.5 17.7761 3.72386 18 4 18H10C10.2761 18 10.5 17.7761 10.5 17.5V11.5C10.5 11.2239 10.2761 11 10 11Z"></path><g><path stroke="#191919" d="M7 4.75C6.86193 4.75 6.75 4.63807 6.75 4.5C6.75 4.36193 6.86193 4.25 7 4.25"></path><path stroke="#191919" d="M7 4.75C7.13807 4.75 7.25 4.63807 7.25 4.5C7.25 4.36193 7.13807 4.25 7 4.25"></path></g><g><path stroke="#191919" d="M10 4.75C9.86193 4.75 9.75 4.63807 9.75 4.5C9.75 4.36193 9.86193 4.25 10 4.25"></path><path stroke="#191919" d="M10 4.75C10.1381 4.75 10.25 4.63807 10.25 4.5C10.25 4.36193 10.1381 4.25 10 4.25"></path></g></svg>
